<?xml version="1.0" standalone="no"?>
<!DOCTYPE svg PUBLIC "-//W3C//DTD SVG 20010904//EN"
 "http://www.w3.org/TR/2001/REC-SVG-20010904/DTD/svg10.dtd">
<svg version="1.0" xmlns="http://www.w3.org/2000/svg"
 width="736.000000pt" height="702.000000pt" viewBox="0 0 736.000000 702.000000"
 preserveAspectRatio="xMidYMid meet">

<g transform="translate(0.000000,702.000000) scale(0.100000,-0.100000)"
fill="#000000" stroke="none">
<path d="M3678 6703 c-12 -30 -35 -100 -53 -163 -1 -3 -4 -12 -8 -20 -3 -8
-13 -42 -22 -75 -9 -33 -25 -82 -35 -110 -11 -27 -38 -111 -60 -185 -23 -74
-49 -155 -59 -180 -17 -41 -92 -271 -157 -480 -14 -47 -30 -94 -34 -105 -5
-11 -21 -60 -36 -110 -15 -49 -41 -133 -59 -185 -18 -52 -42 -129 -54 -170
-12 -41 -28 -91 -35 -110 -8 -19 -18 -53 -23 -75 -15 -61 -70 -242 -95 -315
l-23 -65 -800 0 c-440 0 -806 -4 -812 -8 -7 -4 -21 -3 -31 2 -11 6 -71 9 -143
6 -68 -2 -263 -5 -434 -7 -301 -3 -310 -4 -313 -23 -1 -11 1 -25 5 -31 10 -14
191 -147 223 -164 14 -7 29 -19 33 -27 4 -7 25 -22 45 -32 20 -11 51 -32 68
-48 16 -15 48 -40 70 -54 45 -30 260 -190 287 -213 9 -9 24 -16 32 -16 9 0 18
-7 22 -16 3 -8 46 -43 95 -77 156 -108 174 -122 192 -140 10 -9 32 -25 49 -34
18 -9 38 -24 44 -33 7 -10 30 -27 52 -38 22 -12 48 -28 58 -36 58 -48 103 -83
119 -93 32 -21 120 -86 178 -130 30 -24 60 -43 65 -43 5 0 16 -7 24 -15 8 -8
44 -36 79 -62 35 -26 77 -58 93 -71 17 -12 54 -39 84 -58 67 -45 101 -75 101
-88 0 -14 -59 -216 -70 -236 -4 -9 -11 -31 -15 -50 -4 -19 -12 -44 -19 -55 -6
-11 -20 -47 -29 -80 -10 -33 -25 -80 -33 -105 -8 -25 -31 -94 -51 -155 -19
-60 -41 -123 -48 -140 -7 -16 -18 -52 -25 -80 -7 -27 -16 -54 -20 -60 -4 -5
-18 -46 -29 -90 -12 -44 -33 -107 -46 -140 -13 -33 -30 -85 -39 -115 -17 -62
-41 -138 -61 -190 -7 -19 -23 -69 -35 -110 -12 -41 -48 -154 -80 -250 -32 -96
-70 -215 -85 -265 -14 -49 -41 -136 -58 -191 -18 -56 -31 -109 -29 -118 6 -27
41 -18 90 23 26 21 76 58 112 82 75 51 138 97 303 221 64 48 119 88 122 88 2
0 62 42 132 93 70 52 139 100 152 108 13 8 32 21 42 29 9 8 28 24 40 35 13 11
35 28 49 38 84 56 154 107 195 142 26 22 55 45 65 50 9 6 51 37 94 70 43 33
93 71 112 85 82 62 203 153 246 186 26 21 56 42 67 48 10 6 62 44 115 84 111
85 148 100 176 72 10 -10 27 -23 37 -28 17 -10 154 -111 309 -227 36 -27 76
-57 88 -65 25 -17 93 -68 255 -189 121 -91 184 -136 328 -238 48 -35 102 -74
118 -87 32 -27 126 -94 217 -155 31 -21 85 -60 120 -88 34 -27 110 -82 168
-123 58 -40 110 -78 115 -85 6 -7 42 -33 80 -59 39 -26 97 -65 129 -86 64 -43
103 -53 91 -22 -4 9 -12 35 -17 57 -5 22 -14 49 -18 60 -5 11 -14 40 -20 64
-7 24 -18 54 -26 67 -8 12 -17 35 -18 51 -2 15 -5 29 -6 31 -1 1 -3 5 -5 10
-3 10 -10 32 -25 72 -7 19 -17 53 -24 75 -6 22 -14 45 -17 50 -3 6 -11 30 -18
55 -7 25 -19 61 -27 80 -7 19 -16 51 -20 70 -3 19 -10 41 -15 50 -4 8 -17 44
-28 80 -43 136 -144 446 -152 465 -4 11 -10 31 -12 45 -5 28 -42 137 -63 188
-8 18 -14 42 -14 53 0 11 -8 36 -18 57 -11 20 -24 60 -31 87 -7 28 -18 64 -25
80 -29 67 -36 87 -36 109 0 12 -7 31 -15 42 -8 10 -15 28 -15 39 0 11 -6 32
-14 46 -7 14 -19 49 -26 78 -6 28 -16 54 -21 57 -5 3 -9 18 -9 33 0 15 -5 32
-12 39 -7 7 -18 40 -25 75 l-13 62 32 28 c18 15 57 44 87 63 30 20 60 41 67
47 7 7 37 29 66 50 29 21 82 59 117 85 35 26 79 56 97 67 19 11 43 28 55 38
11 10 45 34 74 52 29 19 55 41 58 50 4 8 11 15 17 15 5 0 45 26 87 58 43 32
123 91 178 132 134 99 247 183 292 218 13 9 58 43 100 75 396 292 550 408 563
420 8 7 43 35 78 61 34 26 62 53 62 61 0 11 -77 14 -447 15 -247 1 -520 2
-608 4 -88 1 -193 -1 -233 -4 -40 -3 -75 -3 -78 -1 -4 4 -439 4 -952 1 -222
-1 -232 1 -232 54 0 27 -27 111 -51 158 -5 10 -9 23 -9 30 0 19 -48 169 -59
182 -4 6 -14 40 -21 76 -7 36 -17 69 -21 74 -5 6 -9 16 -9 24 0 8 -6 28 -14
45 -11 27 -48 144 -61 197 -5 20 -24 74 -46 135 -38 104 -80 241 -81 263 0 12
-3 22 -7 22 -3 0 -14 28 -25 63 -10 34 -21 69 -25 77 -4 8 -20 56 -35 105 -16
50 -34 104 -42 120 -12 28 -84 236 -104 300 -16 53 -50 149 -60 170 -9 18 -49
147 -65 205 -15 56 -40 100 -55 100 -10 0 -23 -15 -32 -37z m78 -342 c13 -41
24 -80 24 -87 0 -8 4 -22 9 -32 6 -9 24 -64 41 -122 17 -58 39 -127 50 -155
32 -86 140 -424 140 -441 0 -9 6 -30 14 -47 8 -18 24 -63 36 -102 12 -38 28
-92 36 -120 9 -27 20 -59 24 -70 5 -11 23 -71 41 -133 17 -62 36 -115 40 -118
5 -3 9 -13 9 -22 0 -19 25 -104 83 -272 21 -63 42 -128 47 -145 5 -16 14 -46
21 -65 6 -19 20 -57 30 -85 10 -27 23 -67 29 -88 l12 -38 1066 6 c997 5 1192
8 1234 21 37 11 30 -20 -13 -60 -41 -37 -94 -75 -327 -233 -42 -29 -108 -75
-147 -103 -141 -104 -292 -212 -358 -257 -37 -25 -71 -51 -75 -58 -4 -6 -21
-20 -38 -31 -66 -40 -242 -167 -473 -341 -35 -26 -94 -68 -130 -93 -36 -25
-100 -71 -142 -102 -42 -32 -95 -67 -118 -79 -33 -17 -41 -26 -41 -48 0 -14 7
-35 15 -45 8 -11 15 -30 15 -42 0 -13 5 -26 10 -29 6 -3 10 -14 10 -24 0 -10
9 -40 19 -67 10 -27 24 -69 31 -94 7 -25 25 -76 40 -115 15 -38 37 -104 50
-145 12 -41 26 -84 31 -95 13 -33 53 -158 89 -280 5 -16 20 -64 33 -105 30
-88 144 -449 159 -500 6 -19 14 -44 19 -55 4 -11 18 -54 29 -95 12 -41 30 -97
40 -125 9 -27 32 -95 50 -150 18 -55 44 -124 57 -154 42 -97 23 -117 -51 -56
-24 19 -46 35 -50 35 -4 0 -13 6 -20 13 -30 28 -66 56 -132 102 -38 27 -91 66
-119 88 -27 22 -59 43 -70 47 -11 5 -45 30 -75 57 -30 28 -104 85 -165 128
-60 42 -117 84 -125 91 -26 24 -142 111 -256 193 -62 44 -136 100 -166 124
-30 25 -65 50 -77 56 -12 7 -59 40 -104 74 -45 34 -89 67 -98 72 -46 29 -159
118 -159 126 0 5 -5 9 -12 9 -6 0 -27 12 -46 27 -66 50 -134 93 -147 93 -8 0
-17 -5 -21 -11 -3 -6 -29 -26 -58 -45 -58 -40 -104 -72 -149 -108 -18 -13 -70
-52 -117 -87 -47 -34 -110 -82 -142 -106 -31 -23 -59 -43 -63 -43 -3 0 -30
-19 -60 -43 -29 -23 -106 -80 -170 -127 -64 -47 -157 -117 -208 -155 -134
-103 -329 -248 -349 -260 -9 -5 -71 -53 -138 -105 -67 -52 -170 -130 -228
-173 -58 -42 -119 -91 -134 -107 -48 -53 -65 -33 -37 45 10 28 25 77 34 110
16 59 19 68 45 130 17 40 84 238 116 345 43 140 58 184 159 465 55 154 85 243
115 345 12 41 30 92 40 113 10 21 26 68 35 105 9 37 20 72 24 77 4 6 18 46 30
90 12 44 26 89 31 100 19 44 100 294 100 309 0 9 -4 16 -8 16 -5 0 -55 34
-111 75 -56 41 -104 75 -106 75 -5 0 -164 117 -194 141 -7 7 -37 28 -65 48
-54 37 -162 117 -206 151 -14 11 -46 35 -71 53 -49 33 -128 91 -215 155 -156
114 -333 242 -387 279 -34 24 -98 69 -142 102 -68 50 -189 133 -348 239 -21
15 -33 30 -29 34 9 9 731 10 1747 2 l591 -4 18 57 c10 32 22 68 27 81 5 13 9
32 9 42 0 11 6 34 14 52 7 18 21 60 31 93 10 33 22 69 27 81 5 12 8 30 6 41
-1 11 3 27 11 36 12 15 45 117 71 216 5 18 13 38 19 44 6 6 11 22 11 35 0 13
5 32 11 43 5 11 19 55 30 97 11 42 27 90 35 106 8 16 14 37 14 48 0 10 4 26 9
36 6 9 26 69 47 132 20 63 42 131 49 150 7 19 22 67 34 105 12 39 42 132 66
208 25 76 45 146 45 156 0 9 4 21 8 27 5 5 14 27 20 49 10 38 69 236 78 263 9
28 27 4 50 -67z m-2433 -2046 c4 -8 2 -17 -3 -20 -6 -4 -10 3 -10 14 0 25 6
27 13 6z m4132 -55 c3 -5 1 -10 -4 -10 -6 0 -11 5 -11 10 0 6 2 10 4 10 3 0 8
-4 11 -10z m65 -1070 c0 -5 -7 -7 -15 -4 -8 4 -15 8 -15 10 0 2 7 4 15 4 8 0
15 -4 15 -10z m-2190 -1530 c0 -5 -4 -10 -10 -10 -5 0 -10 5 -10 10 0 6 5 10
10 10 6 0 10 -4 10 -10z"/>
</g>
</svg>
