<?xml version="1.0" standalone="no"?>
<!DOCTYPE svg PUBLIC "-//W3C//DTD SVG 20010904//EN"
 "http://www.w3.org/TR/2001/REC-SVG-20010904/DTD/svg10.dtd">
<svg version="1.0" xmlns="http://www.w3.org/2000/svg"
 width="1200.000000pt" height="1200.000000pt" viewBox="0 0 1200.000000 1200.000000"
 preserveAspectRatio="xMidYMid meet">

<g transform="translate(0.000000,1200.000000) scale(0.100000,-0.100000)"
fill="rgb(255,255,0)" stroke="none">
<path d="M5833 11201 c-69 -20 -139 -71 -173 -126 -12 -19 -73 -221 -136 -448
-63 -226 -137 -491 -164 -587 -27 -96 -96 -348 -155 -560 -58 -212 -140 -504
-180 -650 -66 -237 -236 -847 -362 -1302 l-46 -168 -751 0 c-413 0 -1257 -3
-1876 -6 -1217 -6 -1215 -6 -1307 -60 -62 -36 -108 -102 -128 -182 -15 -64
-15 -72 1 -135 10 -41 29 -84 49 -110 35 -46 58 -61 1623 -1097 452 -300 994
-659 1205 -798 210 -140 383 -257 385 -261 1 -5 -22 -84 -52 -177 -62 -194
-363 -1132 -467 -1459 -39 -121 -113 -350 -164 -510 -52 -159 -164 -510 -250
-780 -86 -269 -167 -521 -180 -560 -45 -134 -51 -185 -31 -265 21 -87 56 -139
121 -178 76 -46 143 -56 231 -36 81 18 -20 -58 939 704 558 443 684 543 1005
799 162 129 358 285 435 346 77 61 263 209 413 328 150 119 275 217 278 217 3
0 216 -151 472 -337 257 -185 575 -414 707 -509 132 -95 617 -445 1078 -777
829 -597 840 -604 912 -621 68 -16 77 -16 136 -1 121 31 185 95 214 214 28
115 153 -240 -1089 3081 -215 576 -232 626 -217 641 9 9 286 213 616 454 330
242 659 482 730 535 72 53 218 160 325 238 182 133 497 364 1127 825 288 211
310 235 338 348 15 60 15 70 0 130 -31 120 -98 186 -219 215 -69 16 -104 15
-1041 -25 -534 -23 -1062 -46 -1175 -51 -471 -23 -1632 -71 -1635 -68 -2 3
-68 202 -420 1268 -122 371 -590 1791 -731 2221 -63 193 -112 251 -240 283
-74 19 -73 19 -151 -3z m447 -1401 c149 -454 337 -1023 417 -1265 230 -699
412 -1254 440 -1337 23 -72 27 -78 52 -78 15 0 176 7 357 15 931 43 3580 155
3592 153 7 -2 -254 -199 -580 -438 -2188 -1604 -2340 -1715 -2510 -1838 -59
-42 -107 -83 -108 -90 0 -13 73 -208 612 -1652 110 -294 285 -764 390 -1045
105 -280 235 -629 289 -774 55 -145 98 -265 97 -266 -2 -1 -183 128 -403 287
-220 159 -499 360 -620 447 -121 87 -384 276 -585 421 -201 145 -563 406 -805
580 -242 175 -527 380 -634 457 l-194 140 -276 -219 c-152 -121 -366 -291
-476 -378 -110 -87 -360 -286 -555 -441 -195 -156 -447 -356 -560 -445 -113
-90 -441 -350 -729 -579 -287 -229 -525 -415 -527 -412 -2 2 41 145 97 318 55
173 136 424 179 559 98 307 305 953 415 1295 46 143 117 366 158 495 42 129
139 432 216 673 78 242 141 443 141 448 0 6 -339 234 -752 508 -414 275 -926
614 -1138 754 -212 141 -622 413 -912 605 l-527 349 1351 6 c743 4 1643 7
1999 7 l648 0 15 53 c19 65 259 931 291 1047 12 47 102 371 200 720 97 349
187 673 200 720 67 245 356 1287 361 1300 7 17 -1 41 374 -1100z"/>
</g>
</svg>
